HIERARCHY
ROOT Hips
{
  OFFSET 0 0 0
  CHANNELS 6 Xposition Yposition Zposition Zrotation Yrotation Xrotation
  JOINT LeftThigh
  {
    OFFSET 8.409438 0 -5.917753
    CHANNELS 3 Zrotation Yrotation Xrotation
    JOINT LeftLeg
    {
      OFFSET 0 0 -42.358652
      CHANNELS 3 Zrotation Yrotation Xrotation
      JOINT LeftFoot
      {
        OFFSET 0 0 -39.357303
        CHANNELS 3 Zrotation Yrotation Xrotation
      }
    }
  }
  JOINT RightThigh
  {
    OFFSET -8.409438 0 -5.917753
    CHANNELS 3 Zrotation Yrotation Xrotation
    JOINT RightLeg
    {
      OFFSET 0 0 -42.358652
      CHANNELS 3 Zrotation Yrotation Xrotation
      JOINT RightFoot
      {
        OFFSET 0 0 -39.357303
        CHANNELS 3 Zrotation Yrotation Xrotation
      }
    }
  }
  JOINT SpineLow
  {
    OFFSET 0 0 4.719101
    CHANNELS 3 Zrotation Yrotation Xrotation
    JOINT SpineMid
    {
      OFFSET 0 0 12.899191
      CHANNELS 3 Zrotation Yrotation Xrotation
      JOINT Chest
      {
        OFFSET 0 0 12.899191
        CHANNELS 3 Zrotation Yrotation Xrotation
        JOINT LeftShoulder
        {
          OFFSET 7.550562 1.41573 9.438202
          CHANNELS 3 Zrotation Yrotation Xrotation
          JOINT LeftArm
          {
            OFFSET 9.155056 0 4.247191
            CHANNELS 3 Zrotation Yrotation Xrotation
            JOINT LeftForearm
            {
              OFFSET 0 0 25.771955
              CHANNELS 3 Zrotation Yrotation Xrotation
              JOINT LeftHand
              {
                OFFSET 0 0 25.197169
                CHANNELS 3 Zrotation Yrotation Xrotation
              }
            }
          }
        }
        JOINT RightShoulder
        {
          OFFSET -7.550562 1.41573 9.438202
          CHANNELS 3 Zrotation Yrotation Xrotation
          JOINT RightArm
          {
            OFFSET -9.155056 0 4.247191
            CHANNELS 3 Zrotation Yrotation Xrotation
            JOINT RightForearm
            {
              OFFSET 0 0 -25.771955
              CHANNELS 3 Zrotation Yrotation Xrotation
              JOINT RightHand
              {
                OFFSET 0 0 -25.197169
                CHANNELS 3 Zrotation Yrotation Xrotation
              }
            }
          }
        }
        JOINT Neck
        {
          OFFSET 0 0 15.101124
          CHANNELS 3 Zrotation Yrotation Xrotation
          JOINT Head
          {
            OFFSET 0 0 11.325843
            CHANNELS 3 Zrotation Yrotation Xrotation
            End Site
            {
              OFFSET 0 0 14.157303
            }
          }
        }
      }
    }
  }
}
MOTION
Frames: 13
Frame Time: 0.0
0.0  93.25843  0.0  0.504598  -44.830599  -92.935387  38.771408  -24.80113  -37.587457  -2.44558  7.570589  42.003368  7.330605  0.652212  4.824744  -13.925225  19.309931  -15.01435  2.208059  13.703562  30.238773  2.09815  1.146136  0.537993  3.487125  0.958982  1.354884  9.585991  2.418939  3.83431  9.585991  2.418939  3.83431  -22.95445  10.906476  2.733789  -116.89921  64.272746  -54.847708  -45.383054  7.177504  75.235469  58.05488  -21.590051  1.367009  0.315274  -13.601995  20.8924  94.571983  38.673382  35.723187  -5.72966  -21.197878  -118.888554  69.22707  -15.235172  -26.505887  14.815432  1.052628  0.624262  11.1102  0.805171  0.442964  
0.0  93.25843  0.0  0.769938  -45.1225  -93.222635  40.069754  -24.919572  -37.764635  -2.464275  7.814551  42.077538  6.880216  0.786337  4.730341  -14.443059  19.123522  -15.466833  2.377414  14.726561  30.869594  2.898811  1.247584  0.303309  3.456071  0.943239  1.365395  9.500441  2.376357  3.85961  9.500441  2.376357  3.85961  -22.862222  11.069665  2.837291  -118.913438  63.868922  -57.151071  -44.770031  7.114282  75.708047  58.104343  -21.751531  1.28785  0.145619  -13.523709  21.079846  94.345203  38.661726  35.450029  -5.601641  -21.554098  -118.736392  69.213678  -15.417597  -26.437821  14.926687  1.067966  0.951337  11.193062  0.824803  0.687873  
0.0  93.25843  0.0  1.015739  -45.298031  -93.423138  41.513834  -24.815347  -37.990845  -2.74015  7.973739  42.074705  6.287063  0.934189  4.59725  -14.664627  18.886749  -15.592119  2.013665  15.924811  31.070711  3.978143  1.013672  0.214014  3.420905  0.916714  1.343142  9.401872  2.309326  3.793871  9.401871  2.309326  3.793871  -22.897169  11.48042  2.961728  -120.201857  63.864859  -58.626545  -44.470181  6.90147  75.983858  58.177766  -21.859103  1.182354  0.004943  -13.442366  21.126515  94.083578  38.768391  35.211507  -5.507216  -21.619633  -118.537565  69.379159  -15.358202  -26.471109  14.898886  1.076628  1.43217  11.171389  0.842996  1.048578  
0.0  93.25843  0.0  1.182562  -45.343752  -93.58866  42.801762  -24.730102  -38.178567  -3.067503  8.044586  42.097221  5.85916  0.948574  4.657664  -14.322222  18.817314  -15.419585  1.518864  16.404423  31.345807  5.131056  1.257514  -0.179057  3.376392  0.864514  1.302273  9.275633  2.175381  3.673461  9.275633  2.175381  3.673461  -22.98946  12.238178  3.227377  -120.544498  64.155182  -59.022899  -44.508304  6.694532  76.038128  58.364377  -21.930725  1.131762  -0.205958  -13.347714  21.054076  94.004444  38.820564  35.114872  -5.402127  -21.485878  -118.374014  69.346028  -15.218356  -26.434908  14.807464  1.116628  2.004982  11.101729  0.886693  1.477652  
0.0  93.25843  0.0  1.281037  -45.214515  -93.694199  43.881297  -24.728449  -38.335347  -3.470827  8.320961  41.974328  5.339485  1.017492  4.507285  -13.679989  19.00037  -15.108466  1.162417  16.185478  31.722653  5.132142  1.280369  -0.425498  3.324589  0.796583  1.241347  9.128172  2.001544  3.496111  9.128172  2.001544  3.496111  -23.058805  13.052379  3.61041  -120.632221  64.48318  -59.080588  -44.59739  6.509548  75.974174  58.495576  -22.001863  1.061464  -0.392526  -13.244644  21.056553  94.122222  38.822246  35.117693  -5.4067  -21.303624  -118.270068  68.984971  -15.036537  -26.344646  14.659927  1.170564  2.576458  10.989864  0.940405  1.905486  
0.0  93.25843  0.0  1.430773  -44.926406  -93.766563  44.198001  -24.732651  -38.575767  -3.443951  8.444492  42.132413  4.83789  1.03393  4.379876  -13.201857  19.389793  -14.922498  0.97108  15.545381  32.138658  4.798262  1.357705  -0.659831  3.259114  0.732409  1.162203  8.943452  1.840819  3.269516  8.943453  1.840819  3.269516  -23.065486  13.824836  4.062235  -120.70531  64.726677  -59.140408  -44.646911  6.486207  75.874575  58.673415  -22.121892  0.841482  -0.473077  -13.094853  21.182849  94.480227  38.745052  35.199023  -5.611479  -21.176849  -118.239994  68.344088  -14.881465  -26.240833  14.514509  1.227821  3.055697  10.879655  0.994152  2.264028  
0.0  93.25843  0.0  1.657181  -44.526379  -93.882741  44.301542  -24.885632  -38.561559  -3.354183  8.772699  42.059316  4.437654  0.996523  4.26948  -13.167016  19.787385  -14.761857  0.722468  14.989521  32.252641  4.469808  1.451855  -0.819597  3.188286  0.667547  1.066947  8.744117  1.68012  2.999082  8.744117  1.68012  2.999082  -23.01428  14.648766  4.620684  -120.766385  64.924657  -59.13039  -44.758205  6.570328  75.68879  58.754931  -22.183521  0.664293  -0.450793  -12.833732  21.522293  94.924729  38.611522  35.275086  -5.953326  -21.078482  -118.274449  67.472087  -14.804586  -26.028949  14.390281  1.289352  3.468158  10.785358  1.049428  2.572329  
0.0  93.25843  0.0  1.968824  -44.12388  -94.029865  44.028832  -24.909205  -38.453608  -3.034892  8.912545  42.049843  4.173755  0.962754  4.189059  -13.723628  20.232053  -14.877077  0.615877  14.608304  32.207781  4.415812  1.517909  -0.966793  2.978588  0.546594  0.929162  8.162392  1.376882  2.60295  8.162393  1.376882  2.60295  -21.829005  15.952482  5.280391  -121.087601  65.210601  -59.135906  -44.983796  6.664097  75.46142  58.800014  -22.220502  0.566494  0.537168  -12.059201  22.26551  94.215337  38.970598  34.484897  -5.308783  -20.923228  -118.26458  66.595757  -14.788664  -25.712309  14.842737  1.55494  3.997365  11.121775  1.264262  2.962131  
0.0  93.25843  0.0  2.268473  -43.652753  -94.11891  43.653097  -24.851089  -38.283475  -2.645464  9.036931  41.931795  4.012914  0.941416  4.12436  -14.816677  20.562755  -15.083135  0.638458  14.514994  31.881238  4.538169  1.561347  -1.129724  2.921865  0.483262  0.836774  8.003089  1.217558  2.341978  8.00309  1.217558  2.341978  -21.616551  16.710617  5.741605  -121.682644  65.556193  -59.329547  -45.177849  6.639304  75.324593  58.782398  -22.249476  0.571917  0.710318  -11.631037  22.763029  94.461682  38.802141  34.402377  -5.559306  -20.826909  -118.345433  65.924724  -14.776089  -25.445214  14.772008  1.668614  4.172443  11.067454  1.353349  3.090901  
0.0  93.25843  0.0  2.605095  -43.174656  -94.17329  43.374792  -24.682441  -38.070406  -2.135619  9.187578  41.745526  3.963665  0.813029  4.062009  -16.12604  20.8549  -15.384547  0.628628  14.558862  31.423368  4.882598  1.673257  -1.273228  2.771642  0.405113  0.738348  7.588125  1.021005  2.061693  7.588125  1.021005  2.061693  -20.672947  17.563461  6.141519  -122.385947  65.899314  -59.63125  -45.197816  6.492899  75.332868  58.683456  -22.281592  0.699782  1.501163  -11.035976  23.33614  93.789609  39.067268  33.700132  -4.92161  -20.666377  -118.329334  65.553291  -14.757854  -25.230756  15.09701  1.879426  4.322821  11.309132  1.517568  3.197687  
0.0  93.25843  0.0  2.879742  -42.66844  -94.155434  43.084309  -24.446441  -38.058465  -1.445758  9.168821  41.730951  4.070734  0.656175  4.068532  -17.305013  21.09604  -15.673662  0.799596  14.677651  30.932464  5.155631  1.692658  -1.291573  2.766684  0.382353  0.713616  7.573477  0.961886  1.991498  7.573477  0.961886  1.991498  -20.69281  17.81352  6.153252  -123.079359  66.204006  -59.974225  -44.996932  6.214192  75.474648  58.557211  -22.32044  0.907027  1.582221  -10.784296  23.506578  93.792365  39.077825  33.524886  -5.014824  -20.489815  -118.267136  65.438751  -14.67524  -25.082617  14.950766  2.004493  4.117455  11.19904  1.605343  3.040869  
0.0  93.25843  0.0  3.178797  -42.210063  -94.074666  43.232436  -24.072408  -37.933877  -0.842639  9.052782  41.52208  3.938981  0.626607  4.000101  -17.943692  21.303514  -15.850684  0.952868  14.802069  30.466886  5.261124  1.627617  -1.234084  2.722534  0.358686  0.704708  7.451929  0.89965  1.9639  7.45193  0.89965  1.9639  -20.443118  18.029519  5.984081  -123.535369  66.425253  -60.164172  -44.646513  5.87957  75.677751  58.534697  -22.371836  1.100228  1.916662  -10.492805  23.521697  93.763317  39.151357  33.32832  -5.010186  -20.329449  -118.100444  65.549055  -14.556573  -25.036749  14.610691  2.065729  3.662869  10.944926  1.63806  2.699267  
0.0  93.25843  0.0  3.35312  -41.655463  -93.936596  43.192384  -23.604735  -38.073583  -0.15059  8.616726  41.589823  3.804436  0.539004  3.991521  -17.942859  21.449515  -15.700502  1.006848  14.809192  30.097533  5.192573  1.557933  -1.123185  2.744565  0.358231  0.731094  7.512462  0.894747  2.036149  7.512462  0.894747  2.036149  -20.667423  17.981977  5.752278  -123.61739  66.600211  -59.946755  -44.283612  5.558673  75.859977  58.557999  -22.440532  1.28334  1.928244  -10.390373  23.378009  93.849222  39.195044  33.219686  -5.16959  -20.219129  -117.871612  65.79255  -14.347544  -24.861317  14.415035  2.189449  3.247106  10.798695  1.719879  2.384928  
